<?xml version="1.0" encoding="utf-8"?>
<!-- Generator: Adobe Illustrator 27.0.0, SVG Export Plug-In . SVG Version: 6.00 Build 0)  -->
<svg version="1.1" id="Lager_1" xmlns="http://www.w3.org/2000/svg" xmlns:xlink="http://www.w3.org/1999/xlink" x="0px" y="0px"
	 viewBox="0 0 463.7 189" style="enable-background:new 0 0 463.7 189;" xml:space="preserve">
<style type="text/css">
	.st0{fill:#FFFFFF;}
</style>
<g>
	<g>
		<path class="st0" d="M74.9,129.8c0.1-0.1,0.2-0.4,0.6-0.4c0.3,0,0.6,0.3,0.6,0.6c0,0.1,0,0.2-0.1,0.3l-4.2,11.1
			c-0.1,0.3-0.3,0.4-0.6,0.4s-0.5-0.2-0.6-0.4l-4.2-11.1c0-0.1-0.1-0.2-0.1-0.3c0-0.3,0.3-0.6,0.6-0.6c0.3,0,0.5,0.3,0.6,0.4
			l3.7,9.7L74.9,129.8z"/>
	</g>
	<g>
		<path class="st0" d="M83.4,141.2c0,0.3-0.3,0.6-0.6,0.6c-0.3,0-0.6-0.3-0.6-0.6V130c0-0.3,0.3-0.6,0.6-0.6c0.3,0,0.6,0.3,0.6,0.6
			V141.2z"/>
	</g>
	<g>
		<path class="st0" d="M91.2,141.7c-0.3,0-0.6-0.3-0.6-0.6v-10.9c0-0.3,0.3-0.6,0.6-0.6H97c0.3,0,0.6,0.3,0.6,0.6s-0.3,0.6-0.6,0.6
			h-5.2v4.3h4c0.3,0,0.6,0.3,0.6,0.6s-0.3,0.6-0.6,0.6h-4v4.4h5.4c0.3,0,0.6,0.3,0.6,0.6s-0.3,0.6-0.6,0.6h-6V141.7z"/>
	</g>
	<g>
		<path class="st0" d="M110.2,132.2l-2.6,9.2c-0.1,0.3-0.3,0.5-0.6,0.5c-0.3,0-0.5-0.2-0.6-0.5l-3.2-11.1c0-0.1,0-0.1,0-0.2
			c0-0.3,0.3-0.6,0.6-0.6c0.3,0,0.5,0.3,0.6,0.5l2.6,9.3l2.6-9.3c0.1-0.3,0.3-0.5,0.6-0.5c0.3,0,0.5,0.2,0.6,0.5l2.6,9.3l2.6-9.3
			c0.1-0.2,0.3-0.5,0.6-0.5c0.3,0,0.6,0.3,0.6,0.6c0,0.1,0,0.1,0,0.2l-3.2,11.1c-0.1,0.3-0.3,0.5-0.6,0.5c-0.3,0-0.5-0.2-0.6-0.5
			L110.2,132.2z"/>
	</g>
	<g>
		<path class="st0" d="M124.5,141.2c0,0.3-0.3,0.6-0.6,0.6c-0.3,0-0.6-0.3-0.6-0.6V130c0-0.3,0.3-0.6,0.6-0.6c0.3,0,0.6,0.3,0.6,0.6
			V141.2z"/>
	</g>
	<g>
		<path class="st0" d="M140.2,130v11.2c0,0.3-0.3,0.6-0.6,0.6c-0.2,0-0.4-0.1-0.5-0.3l-6.3-9.6v9.2c0,0.3-0.3,0.6-0.6,0.6
			s-0.6-0.3-0.6-0.6V130c0-0.3,0.3-0.6,0.6-0.6c0.2,0,0.4,0.1,0.5,0.3l6.4,9.6V130c0-0.3,0.3-0.6,0.6-0.6
			C139.9,129.4,140.2,129.7,140.2,130z"/>
	</g>
	<g>
		<path class="st0" d="M155.5,139.4v-2.6h-3c-0.3,0-0.6-0.3-0.6-0.6s0.3-0.6,0.6-0.6h3.6c0.3,0,0.6,0.3,0.6,0.6v3.2
			c0,0.2-0.1,0.4-0.2,0.6c-0.9,1-2.1,2-4.3,2c-3.5,0-5.6-1.9-5.6-6.3c0-4.3,2.1-6.3,5.6-6.3c1.7,0,3.2,0.7,4.1,1.9
			c0.1,0.1,0.1,0.3,0.1,0.4c0,0.3-0.3,0.6-0.6,0.6c-0.2,0-0.3-0.1-0.5-0.2c-0.6-0.8-1.8-1.5-3.1-1.5c-2.8,0-4.4,1.7-4.4,5.2
			c0,3.7,1.6,5.2,4.4,5.2C153.8,140.8,154.9,140.1,155.5,139.4z"/>
	</g>
	<g>
		<path class="st0" d="M172.2,141.2V136l-3.6-5.7c-0.1-0.1-0.1-0.2-0.1-0.3c0-0.3,0.3-0.6,0.6-0.6c0.2,0,0.4,0.1,0.5,0.3l3.2,5.1
			l3.2-5.1c0.1-0.2,0.3-0.3,0.5-0.3c0.3,0,0.6,0.3,0.6,0.6c0,0.1,0,0.2-0.1,0.3l-3.6,5.7v5.2c0,0.3-0.3,0.6-0.6,0.6
			C172.4,141.8,172.2,141.6,172.2,141.2z"/>
	</g>
	<g>
		<path class="st0" d="M182.3,135.6c0-4.3,2.1-6.3,5.6-6.3s5.6,2.1,5.6,6.3s-2.1,6.3-5.6,6.3C184.4,141.9,182.3,139.9,182.3,135.6z
			 M183.6,135.6c0,3.5,1.6,5.2,4.4,5.2c2.8,0,4.4-1.7,4.4-5.2s-1.6-5.2-4.4-5.2C185.2,130.4,183.6,132.1,183.6,135.6z"/>
	</g>
	<g>
		<path class="st0" d="M200.1,138v-8c0-0.3,0.3-0.6,0.6-0.6s0.6,0.3,0.6,0.6v8c0,1.4,0.5,2.8,3,2.8s3-1.4,3-2.8v-8
			c0-0.3,0.3-0.6,0.6-0.6s0.6,0.3,0.6,0.6v8c0,2-0.8,3.9-4.2,3.9C200.9,141.9,200.1,140,200.1,138z"/>
	</g>
	<g>
		<path class="st0" d="M216.9,141.2c0,0.3-0.3,0.6-0.6,0.6s-0.6-0.3-0.6-0.6v-11.1c0-0.3,0.3-0.6,0.6-0.6h3.6c2,0,3.4,1.5,3.4,3.4
			s-1.3,3.4-3.2,3.4l3.3,4.4c0.1,0.1,0.1,0.3,0.1,0.4c0,0.3-0.3,0.6-0.6,0.6c-0.2,0-0.4-0.1-0.5-0.3l-3.7-5.1h-1.8V141.2z
			 M216.9,135.3h3c1.3,0,2.2-1,2.2-2.3s-0.9-2.3-2.2-2.3h-3V135.3z"/>
	</g>
	<g>
		<path class="st0" d="M262.2,130v11.2c0,0.3-0.3,0.6-0.6,0.6c-0.2,0-0.4-0.1-0.5-0.3l-6.3-9.6v9.2c0,0.3-0.3,0.6-0.6,0.6
			s-0.6-0.3-0.6-0.6V130c0-0.3,0.3-0.6,0.6-0.6c0.2,0,0.4,0.1,0.5,0.3l6.4,9.6V130c0-0.3,0.3-0.6,0.6-0.6
			C261.9,129.4,262.2,129.7,262.2,130z"/>
	</g>
	<g>
		<path class="st0" d="M269.8,141.7c-0.3,0-0.6-0.3-0.6-0.6v-10.9c0-0.3,0.3-0.6,0.6-0.6h5.8c0.3,0,0.6,0.3,0.6,0.6
			s-0.3,0.6-0.6,0.6h-5.2v4.3h4c0.3,0,0.6,0.3,0.6,0.6s-0.3,0.6-0.6,0.6h-4v4.4h5.4c0.3,0,0.6,0.3,0.6,0.6s-0.3,0.6-0.6,0.6h-6
			V141.7z"/>
	</g>
	<g>
		<path class="st0" d="M288.7,132.2l-2.6,9.2c-0.1,0.3-0.3,0.5-0.6,0.5c-0.3,0-0.5-0.2-0.6-0.5l-3.2-11.1c0-0.1,0-0.1,0-0.2
			c0-0.3,0.3-0.6,0.6-0.6s0.5,0.3,0.6,0.5l2.6,9.3l2.6-9.3c0.1-0.3,0.3-0.5,0.6-0.5c0.3,0,0.5,0.2,0.6,0.5l2.6,9.3l2.6-9.3
			c0.1-0.2,0.3-0.5,0.6-0.5c0.3,0,0.6,0.3,0.6,0.6c0,0.1,0,0.1,0,0.2l-3.2,11.1c-0.1,0.3-0.3,0.5-0.6,0.5c-0.3,0-0.5-0.2-0.6-0.5
			L288.7,132.2z"/>
	</g>
	<g>
		<path class="st0" d="M310.2,141.7c-0.3,0-0.6-0.3-0.6-0.6v-10.9c0-0.3,0.3-0.6,0.6-0.6h5.8c0.3,0,0.6,0.3,0.6,0.6
			s-0.3,0.6-0.6,0.6h-5.2v4.3h4c0.3,0,0.6,0.3,0.6,0.6s-0.3,0.6-0.6,0.6h-4v4.4h5.4c0.3,0,0.6,0.3,0.6,0.6s-0.3,0.6-0.6,0.6h-6
			V141.7z"/>
	</g>
	<g>
		<path class="st0" d="M326.8,130.4c-1.9,0-2.6,0.9-2.6,2c0,3,6.8,1.7,6.8,6.1c0,2.3-1.6,3.5-4.3,3.5c-2.1,0-3.6-1-4.2-2.2
			c-0.1-0.1-0.1-0.2-0.1-0.3c0-0.3,0.3-0.6,0.6-0.6c0.2,0,0.4,0.1,0.5,0.3c0.6,0.9,1.6,1.7,3.2,1.7c2,0,3.1-0.8,3.1-2.4
			c0-3.4-6.8-1.8-6.8-6.1c0-1.7,1.2-3.1,3.8-3.1c1.7,0,3.1,0.7,3.9,1.9c0.1,0.1,0.1,0.2,0.1,0.3c0,0.3-0.3,0.6-0.6,0.6
			c-0.2,0-0.3-0.1-0.5-0.2C329.2,131.2,328.3,130.4,326.8,130.4z"/>
	</g>
	<g>
		<path class="st0" d="M336.6,130.7c-0.3,0-0.6-0.3-0.6-0.6s0.3-0.6,0.6-0.6h7.7c0.3,0,0.6,0.3,0.6,0.6s-0.3,0.6-0.6,0.6h-3.2v10.5
			c0,0.3-0.3,0.6-0.6,0.6c-0.3,0-0.6-0.3-0.6-0.6v-10.5H336.6z"/>
	</g>
	<g>
		<path class="st0" d="M350.8,138.1l-1.3,3.3c-0.1,0.2-0.3,0.4-0.6,0.4c-0.3,0-0.6-0.3-0.6-0.6c0-0.1,0-0.2,0.1-0.3l4.4-11.1
			c0.1-0.2,0.3-0.4,0.6-0.4c0.3,0,0.5,0.2,0.6,0.4l4.4,11.1c0,0.1,0.1,0.2,0.1,0.3c0,0.3-0.3,0.6-0.6,0.6c-0.3,0-0.5-0.2-0.6-0.4
			l-1.3-3.3H350.8z M353.3,131.5l-2.1,5.5h4.3L353.3,131.5z"/>
	</g>
	<g>
		<path class="st0" d="M362.4,130.7c-0.3,0-0.6-0.3-0.6-0.6s0.3-0.6,0.6-0.6h7.7c0.3,0,0.6,0.3,0.6,0.6s-0.3,0.6-0.6,0.6h-3.2v10.5
			c0,0.3-0.3,0.6-0.6,0.6c-0.3,0-0.6-0.3-0.6-0.6v-10.5H362.4z"/>
	</g>
	<g>
		<path class="st0" d="M377.4,141.7c-0.3,0-0.6-0.3-0.6-0.6v-10.9c0-0.3,0.3-0.6,0.6-0.6h5.8c0.3,0,0.6,0.3,0.6,0.6
			s-0.3,0.6-0.6,0.6H378v4.3h4c0.3,0,0.6,0.3,0.6,0.6s-0.3,0.6-0.6,0.6h-4v4.4h5.4c0.3,0,0.6,0.3,0.6,0.6s-0.3,0.6-0.6,0.6h-6V141.7
			z"/>
	</g>
</g>
<path class="st0" d="M269.5,75l-5.6-4.4c-0.2-0.1-0.4-0.2-0.6-0.1l-6.8,2.1c-0.5,0.2-1-0.3-0.8-0.8l2.5-6.7c0.1-0.2,0-0.4-0.1-0.6
	l-4.1-5.8c-0.3-0.4,0-1,0.5-1l7.1,0.3c0.2,0,0.4-0.1,0.5-0.3l4.3-5.7c0.3-0.4,1-0.3,1.1,0.2l1.9,6.9c0.1,0.2,0.2,0.4,0.4,0.4
	l6.7,2.3c0.5,0.2,0.6,0.8,0.1,1.1l-5.9,3.9c-0.2,0.1-0.3,0.3-0.3,0.5l-0.1,7.1C270.5,75,269.9,75.3,269.5,75z"/>
<path class="st0" d="M289.7,63.5l-3.8-2c-0.1-0.1-0.2-0.1-0.3,0l-3.7,2c-0.3,0.1-0.6-0.1-0.5-0.4L282,59c0-0.1,0-0.2-0.1-0.3l-3.1-3
	c-0.2-0.2-0.1-0.6,0.2-0.6l4.2-0.6c0.1,0,0.2-0.1,0.3-0.2l1.9-3.8c0.1-0.3,0.5-0.3,0.7,0l1.9,3.8c0.1,0.1,0.2,0.2,0.3,0.2l4.2,0.6
	c0.3,0,0.4,0.4,0.2,0.6l-3,3c-0.1,0.1-0.1,0.2-0.1,0.3l0.7,4.2C290.3,63.4,290,63.7,289.7,63.5z"/>
<path class="st0" d="M398.9,77.4c-5.6,0-9.6,7.1-12.8,18.4l-0.3-0.1c0.8-3.6,1.8-9.4,1.8-13.5c0-2.4-0.3-4.7-2.2-4.7
	c-1.6,0-4.6,1.6-6.3,2.9c0.2,1.4,0.3,2.6,0.3,4.5c0,1.7-0.1,3.6-0.2,5.5c-3,17.6-9.6,25.7-15.2,25.7c-4.7,0-8.1-5.5-8.6-14.1
	c4.3-1.3,9.3-4.1,12.2-7.1c2.8-2.8,4.7-6.6,4.7-10.3c0-4.3-2.5-7.2-6.5-7.2c-3.4,0-7.1,2.1-10,5c-5.7,5.6-8.2,13.5-8.2,20.4
	c0,1.8,0.2,3.5,0.5,5.1c-2,5.9-4,8.4-5.6,8.4c-2.3,0-3.3-5.1-3.3-11.5c0-7.7,1.6-22.6,3.8-36.4c1.6-9.8,3.3-19.5,3.3-22.7
	c0-1.9-0.6-2.8-1.8-2.8c-1.8,0-5.3,1.8-7.3,3.5c-0.6,8.7-1.8,18.5-3.3,31.3c-0.9-0.2-1.8-0.3-2.7-0.3c-5.7,0-11,3.6-14.7,8.5
	c-4.1,5.4-6,12.3-6,18.9c0,1.4,0.1,2.8,0.3,4c-1.9,5.2-3.7,7.3-5.2,7.3c-2.3,0-3.4-4.8-3.4-11.3c0-8,1.8-15.3,2.9-21.8
	c-2-3.1-4.8-5.1-8-6.1c-6.7,1.2-12.5,10.5-15.1,25.4h-0.3c0.2-2.1,0.4-4.8,0.8-7.5c0.8-6.5,1.9-12.2,1.9-14.7c0-1.8-0.6-2.7-1.8-2.7
	c-1.7,0-4.8,1.6-6.4,2.9c-0.2,3.1-0.5,6.3-0.9,9.6c-3,19.5-6.8,26.2-9.6,26.2c-2.3,0-3.3-4.8-3.3-10.1c0-5.1,0.8-11.4,1.6-16.6
	c0.6-4.1,1.2-7.7,1.2-9.2c0-1.8-0.6-2.7-1.8-2.7c-0.7,0-2.2,0.5-2.7,0.7c-5.7,1.7-9.1,0.8-13.5,1.1v-0.5c1.2-10.8,3.6-27,5.7-35.6
	l0.1-0.4l0.4,0.1c6.6,1.6,12.3,2.9,16.6,2.9c10,0,12.2-7.6,12.3-14l-1.5-0.7c-1.7,2.9-4.5,3.4-7.3,3.4c-4,0-9.9-1-16.2-2.1
	c-7.2-1.3-14.7-2.6-20.5-2.6c-19.1,0-40.4,15.6-40.4,38c0,7.9,3,15.8,8.9,19.1c1.5,0.9,3.2,1.4,5,1.6c0.4,0,0.8,0.1,1.3,0.1
	c2.4,0,4.7-0.6,6-1.3l-0.1-1.9c-1.8,0-3.5-0.4-5-1c-1.3-0.5-2.4-1.2-3.4-2.1c-3.8-3.3-5.9-9.1-5.9-17.1c0-16.8,9.5-27.6,24.2-27.6
	c6.2,0,14.1,2,21.7,4l0.6,0.2l-0.4,0.5c-1.9,2.6-3.6,6.2-5.1,10.2c-8.4-6.9-20.2-11.6-30-5.7c-3.5,2.2-5.6,5.9-6.4,9.7
	c6.8-16.7,26.5-7.7,34,3.6c-1.7,6.4-2.9,13.3-3.7,19.4l-0.7,4.8c-2,17.6-2.7,23.8-3.2,29.9c-0.6,6.9-0.7,21.4-0.7,24.4
	c0,1.8,0.3,4.9,2.4,4.9c2,0,6.3-2.5,8.6-4.2c0.1-7.2,0.2-34.7,2.4-55.6v-0.4l10-0.2c-0.7,7.8-2,16.2-2,22.5
	c0,10.3,4.1,15.1,8.8,15.1c3.8,0,7.4-3,10.6-13.6c0,4.8,0.5,13.4,3.8,13.4c0.9,0,3-0.7,5-2c-0.1-6.2,1-14.7,2.9-21.4
	c1.5-5.2,3.6-9.6,5.7-12.2c1-1.1,2-1.8,3-1.8c1.3,0,1.7,1.1,1.7,2.4c0,2.6-1.9,11.4-1.9,19.3c0,11.2,4.4,15.9,9,15.9
	c2.9,0,5.8-1.9,8.5-7.8c1.7,5.1,5,7.9,8.5,7.9c4.3,0,8.2-4.3,11.2-15.3l0.2,0.1c0.2,11.1,4.6,15.2,8.8,15.2c3.1,0,6.2-2.2,8.9-9.2
	c2.5,5.9,7.3,9.2,12.2,9.2c5.8,0,12-4.7,16.3-15.6c-0.4,3.7-0.8,6.9-0.8,8.9c0,3,0.8,6.9,3,6.9c1.1,0,2.8-0.9,4.6-1.7
	c0.3-8.3,1-14.8,3.2-21.9c1.8-6,4.5-12.2,7.5-12.2c1.8,0,3.1,2.1,3.8,4.9c2.8-1.2,4.9-3.5,4.9-6.9C404.1,80,402.1,77.4,398.9,77.4z
	 M357.3,88.4c1.3-3.7,3.3-6.1,5.7-6.1c1.9,0,3,1.7,3,4.6c0,7-6.1,10.6-10.4,11.8C355.6,95.4,356.2,91.5,357.3,88.4z M329.4,104.1
	c-2.2,8-4.5,11.7-6.6,11.7c-2.8,0-4.4-5.9-4.4-13.5c0-5.8,1-12.8,3.8-17.6c1.5-1.5,3.4-2.4,5.5-2.4c1.9,0,3.8,0.7,5.3,2.1
	C332.2,90.3,331,97.8,329.4,104.1z"/>
<path class="st0" d="M236.1,94.7c-2.5,16.2-13.9,21.6-17.9,21.6c-5.1,0-9.1-5.2-9.6-14.4c4.3-1.1,9.2-3.5,12.4-6.8
	c2.7-2.8,4.5-6.2,4.5-10c0-0.5,0-1-0.1-1.5c-0.5-3.8-2.9-6.3-6.6-6.3c-3.1,0-6.4,1.8-9.4,4.5c1.1,0.9,2.2,1.5,3.4,1.9
	c0.9-1,1.9-1.5,3-1.5c2.1,0,3.2,2.1,3.2,5c0,7-6.3,10.4-10.5,11.4c0.1-2.9,0.6-6.3,1.5-9.3c-2-0.2-3.7-0.8-5.3-1.7
	c-2.6,4.4-4,9.6-4,14.9c0,1,0.1,1.9,0.1,2.8c-2.5,7.8-5.2,10.8-6.9,10.8c-2.3,0-3.4-4.8-3.4-11.3c0-8,1.8-15.3,3-21.8
	c-1.8-2.9-4.3-5-8.1-6.1c-6.7,1.2-12.5,10.2-15.8,28.7h-0.3c0.1-7.6,2.2-16.1,3.3-22.6c-1.9-2.9-4.5-5.1-8-6.1
	c-6.7,1.2-12.3,10.4-15,25.3h-0.3c0.2-2.4,0.6-5.7,1.2-9.5c1-6.3,1.7-10.7,1.7-12.6c0-1.8-0.6-2.7-1.8-2.7c-1.7,0-4.8,1.6-6.4,2.9
	c-0.2,3.5-0.6,7-1,10.5c-1.4,8.4-5.1,12.4-10,12.8c0.9-3.2,1.4-6.8,1.4-10.4c0-12.2-5.9-16.6-10.4-16.6c-4.8,0-8.5,4.8-8.5,12.6
	c0,9.1,5.3,16,11.6,18.2c-1.3,4.8-3.8,8.6-7.3,8.6c-5.7,0-8.8-9.5-8.8-18.7c0-5,0.9-10.5,3.8-13.2l-0.8-2
	c-6.7,3.1-10.5,10.9-10.5,19.8c0,0.4,0,0.8,0,1.2c-2.4,9.4-5,13-7,13c-2.3,0-3.3-4.9-3.3-11.1c0-7.2,1.5-13.9,2.7-20.3
	c-1.8-3.1-4.3-5.4-8.1-6.1c-6.3,1.1-11.8,9.5-14.5,22.8H73c0-4.7,0.8-12.5,1.7-18.7C83,79.3,89.9,68,89.9,56.8
	c0-3.9-0.8-7.7-2.3-10.4c-0.9-1.8-2.6-3.8-4.3-3.8c-1.8,0-5.5,2.7-7.8,4.8c-1.9,5-3.7,11.3-5.2,17.9C67.2,79,65,94.8,65,107.4
	c0,4.2,0.3,13.2,3.8,13.2c1,0,3.1-0.7,5.1-2c0-5.1,0.6-13.1,2.9-20.9c1.5-5,3.5-8.9,5.4-11c1.1-1.1,2.1-1.7,3.1-1.7
	c1.3,0,1.8,1.1,1.8,2.4c0,2.5-2,10.4-2,17.7c0,10.9,4.5,15.7,9.1,15.7c3.5,0,7-2.7,10-11.9c2,7.7,7.2,12.2,12.8,12.2
	c6.5,0,11.5-6.1,14.4-13c3.6,0,7.7-1.5,10.6-6.3c-0.1,1.7-0.2,3.5-0.2,5.2c0,4.6,0.4,13.6,3.8,13.6c0.9,0,2.8-0.7,4.8-2
	c-0.2-6.2,0.9-14.6,2.9-21.4c1.5-5.1,3.6-9.7,5.7-12.2c1-1.1,2-1.8,3-1.8c1.3,0,1.8,1.2,1.8,2.4c0,2.6-2.1,11.7-2.1,20.1
	c0,7.1,1.5,14.9,5,14.9c1.2,0,2.7-0.8,4.4-2.5c0-6.7,1.1-14.6,2.9-20.9c1.5-5.1,3.6-9.7,5.7-12.2c1-1.1,2-1.8,3-1.8
	c1.3,0,1.8,1.1,1.8,2.4c0,2.6-2.2,11.5-2.2,19.3c0,11.2,4.4,15.9,9.1,15.9c3.4,0,6.9-2.6,9.9-11.5c2.1,7.8,7.8,11.9,13.7,11.9
	c5.8,0,16.5-5.2,20.1-17.2C235.5,103.7,236.2,94.1,236.1,94.7z M81.5,49.2c2.2,3.3,3.1,7.5,3.1,11.5c0,7.9-3.7,16.1-9.4,18.7
	C76.8,68.7,78.7,58.6,81.5,49.2z M128,102.8c-5.3-2.1-9.3-8-9.3-14.2c0-2.5,0.7-6.1,2.9-6.1c3.4,0,6.5,8.3,6.5,16.8
	C128.2,100.5,128.1,101.7,128,102.8z"/>
</svg>
